<?xml version="1.0" encoding="UTF-8" standalone="no"?>
<!DOCTYPE svg PUBLIC "-//W3C//DTD SVG 1.1//EN" "http://www.w3.org/Graphics/SVG/1.1/DTD/svg11.dtd">
<svg version="1.1" xmlns="http://www.w3.org/2000/svg" xmlns:xlink="http://www.w3.org/1999/xlink" preserveAspectRatio="xMidYMid meet" viewBox="0 0 640 640" width="640" height="640"><defs><path d="M140 140L620 140L620 280L140 280L140 140Z" id="af1ysNoLe"></path><path d="M140 320L620 320L620 460L140 460L140 320Z" id="b19kiHuwh9"></path><path d="M140 500L620 500L620 620L140 620L140 500Z" id="bTIoam0sv"></path><path d="M100 620L20 620L20 20L620 20L620 100L100 100L100 100L100 620Z" id="a1bsNNeIwf"></path><path d="M319.3 189.21L324.92 189.78L330.46 190.57L335.93 191.58L341.33 192.79L346.64 194.22L351.87 195.84L357.01 197.67L362.05 199.68L366.99 201.89L371.83 204.28L376.57 206.85L381.18 209.6L385.69 212.51L390.07 215.6L394.32 218.84L398.44 222.24L402.43 225.8L406.28 229.5L409.98 233.35L413.54 237.34L416.94 241.46L420.19 245.72L423.27 250.1L426.18 254.6L428.93 259.22L431.5 263.95L433.89 268.79L436.1 273.73L438.11 278.77L439.94 283.91L441.56 289.14L442.99 294.45L444.2 299.85L445.21 305.32L446 310.87L446.57 316.48L446.92 322.16L447.03 327.89L446.92 333.63L446.57 339.3L446 344.92L445.21 350.46L444.2 355.93L442.99 361.33L441.56 366.64L439.94 371.87L438.11 377.01L436.1 382.05L433.89 386.99L431.5 391.83L428.93 396.57L426.18 401.18L423.37 405.53L511.25 493.41L473.41 531.25L385.53 443.37L381.18 446.18L376.57 448.93L371.83 451.5L366.99 453.89L362.05 456.1L357.01 458.11L351.87 459.94L346.64 461.56L341.33 462.99L335.93 464.2L330.46 465.21L324.92 466L319.3 466.57L313.63 466.92L307.89 467.03L302.16 466.92L296.48 466.57L290.87 466L285.32 465.21L279.85 464.2L274.45 462.99L269.14 461.56L263.91 459.94L258.77 458.11L253.73 456.1L248.79 453.89L243.95 451.5L239.22 448.93L234.6 446.18L230.1 443.27L225.72 440.19L221.46 436.94L217.34 433.54L213.35 429.98L209.5 426.28L205.8 422.43L202.24 418.44L198.84 414.32L195.6 410.07L192.51 405.69L189.6 401.18L186.85 396.57L184.28 391.83L181.89 386.99L179.68 382.05L177.67 377.01L175.84 371.87L174.22 366.64L172.79 361.33L171.58 355.93L170.57 350.46L169.78 344.92L169.21 339.3L168.87 333.63L168.75 327.89L168.87 322.16L169.21 316.48L169.78 310.87L170.57 305.32L171.58 299.85L172.79 294.45L174.22 289.14L175.84 283.91L177.67 278.77L179.68 273.73L181.89 268.79L184.28 263.95L186.85 259.22L189.6 254.6L192.51 250.1L195.6 245.72L198.84 241.46L202.24 237.34L205.8 233.35L209.5 229.5L213.35 225.8L217.34 222.24L221.46 218.84L225.72 215.6L230.1 212.51L234.6 209.6L239.22 206.85L243.95 204.28L248.79 201.89L253.73 199.68L258.77 197.67L263.91 195.84L269.14 194.22L274.45 192.79L279.85 191.58L285.32 190.57L290.87 189.78L296.48 189.21L302.16 188.87L307.89 188.75L313.63 188.87L319.3 189.21ZM300.85 242.32L297.39 242.67L293.96 243.16L290.59 243.78L287.26 244.53L283.98 245.41L280.75 246.41L277.58 247.54L274.47 248.78L271.42 250.15L268.44 251.62L265.52 253.21L262.67 254.9L259.89 256.7L257.19 258.6L254.56 260.6L252.02 262.7L249.56 264.9L247.18 267.18L244.9 269.56L242.7 272.02L240.6 274.56L238.6 277.19L236.7 279.89L234.9 282.67L233.21 285.52L231.62 288.44L230.15 291.42L228.78 294.47L227.54 297.58L226.41 300.75L225.41 303.98L224.53 307.26L223.78 310.59L223.16 313.96L222.67 317.39L222.32 320.85L222.11 324.35L222.04 327.89L222.11 331.43L222.32 334.93L222.67 338.4L223.16 341.82L223.78 345.19L224.53 348.52L225.41 351.8L226.41 355.03L227.54 358.2L228.78 361.31L230.15 364.36L231.62 367.34L233.21 370.26L234.9 373.11L236.7 375.89L238.6 378.59L240.6 381.22L242.7 383.76L244.9 386.22L247.18 388.6L249.56 390.88L252.02 393.08L254.56 395.18L257.19 397.18L259.89 399.08L262.67 400.88L265.52 402.57L268.44 404.16L271.42 405.64L274.47 407L277.58 408.24L280.75 409.37L283.98 410.37L287.26 411.25L290.59 412L293.96 412.62L297.39 413.11L300.85 413.46L304.35 413.67L307.89 413.74L311.43 413.67L314.93 413.46L318.4 413.11L321.82 412.62L325.19 412L328.52 411.25L331.8 410.37L335.03 409.37L338.2 408.24L341.31 407L344.36 405.64L347.34 404.16L350.26 402.57L353.11 400.88L355.89 399.08L358.59 397.18L361.22 395.18L363.76 393.08L366.22 390.88L368.6 388.6L370.88 386.22L373.08 383.76L375.18 381.22L377.18 378.59L379.08 375.89L380.88 373.11L382.57 370.26L384.16 367.34L385.64 364.36L387 361.31L388.24 358.2L389.37 355.03L390.37 351.8L391.25 348.52L392 345.19L392.62 341.82L393.11 338.4L393.46 334.93L393.67 331.43L393.74 327.89L393.67 324.35L393.46 320.85L393.11 317.39L392.62 313.96L392 310.59L391.25 307.26L390.37 303.98L389.37 300.75L388.24 297.58L387 294.47L385.64 291.42L384.16 288.44L382.57 285.52L380.88 282.67L379.08 279.89L377.18 277.19L375.18 274.56L373.08 272.02L370.88 269.56L368.6 267.18L366.22 264.9L363.76 262.7L361.22 260.6L358.59 258.6L355.89 256.7L353.11 254.9L350.26 253.21L347.34 251.62L344.36 250.15L341.31 248.78L338.2 247.54L335.03 246.41L331.8 245.41L328.52 244.53L325.19 243.78L321.82 243.16L318.4 242.67L314.93 242.32L311.43 242.11L307.89 242.04L304.35 242.11L300.85 242.32Z" id="ax8aZjbNI"></path></defs><g><g><g><use xlink:href="#af1ysNoLe" opacity="1" fill="#509ad0" fill-opacity="1"></use></g><g><use xlink:href="#b19kiHuwh9" opacity="1" fill="#50d0b5" fill-opacity="1"></use></g><g><use xlink:href="#bTIoam0sv" opacity="1" fill="#5cd050" fill-opacity="1"></use></g><g><g><filter id="shadow12625303" x="-15" y="-15" width="680" height="680" filterUnits="userSpaceOnUse" primitiveUnits="userSpaceOnUse"><feFlood></feFlood><feComposite in2="SourceAlpha" operator="in"></feComposite><feGaussianBlur stdDeviation="3.16"></feGaussianBlur><feOffset dx="10" dy="10" result="afterOffset"></feOffset><feFlood flood-color="#000000" flood-opacity="0.5"></feFlood><feComposite in2="afterOffset" operator="in"></feComposite><feMorphology operator="dilate" radius="0"></feMorphology><feComposite in2="SourceAlpha" operator="out"></feComposite></filter><path d="M100 620L20 620L20 20L620 20L620 100L100 100L100 100L100 620Z" id="bMzv0oQQn" fill="white" fill-opacity="1" filter="url(#shadow12625303)"></path></g><use xlink:href="#a1bsNNeIwf" opacity="1" fill="#606060" fill-opacity="1"></use></g><g><g><filter id="shadow11903304" x="88.75" y="108.75" width="512.5" height="512.5" filterUnits="userSpaceOnUse" primitiveUnits="userSpaceOnUse"><feFlood></feFlood><feComposite in2="SourceAlpha" operator="in"></feComposite><feGaussianBlur stdDeviation="5.48"></feGaussianBlur><feOffset dx="10" dy="10" result="afterOffset"></feOffset><feFlood flood-color="#000000" flood-opacity="0.5"></feFlood><feComposite in2="afterOffset" operator="in"></feComposite><feMorphology operator="dilate" radius="5"></feMorphology><feComposite in2="SourceAlpha" operator="out"></feComposite></filter><path d="M319.3 189.21L324.92 189.78L330.46 190.57L335.93 191.58L341.33 192.79L346.64 194.22L351.87 195.84L357.01 197.67L362.05 199.68L366.99 201.89L371.83 204.28L376.57 206.85L381.18 209.6L385.69 212.51L390.07 215.6L394.32 218.84L398.44 222.24L402.43 225.8L406.28 229.5L409.98 233.35L413.54 237.34L416.94 241.46L420.19 245.72L423.27 250.1L426.18 254.6L428.93 259.22L431.5 263.95L433.89 268.79L436.1 273.73L438.11 278.77L439.94 283.91L441.56 289.14L442.99 294.45L444.2 299.85L445.21 305.32L446 310.87L446.57 316.48L446.92 322.16L447.03 327.89L446.92 333.63L446.57 339.3L446 344.92L445.21 350.46L444.2 355.93L442.99 361.33L441.56 366.64L439.94 371.87L438.11 377.01L436.1 382.05L433.89 386.99L431.5 391.83L428.93 396.57L426.18 401.18L423.37 405.53L511.25 493.41L473.41 531.25L385.53 443.37L381.18 446.18L376.57 448.93L371.83 451.5L366.99 453.89L362.05 456.1L357.01 458.11L351.87 459.94L346.64 461.56L341.33 462.99L335.93 464.2L330.46 465.21L324.92 466L319.3 466.57L313.63 466.92L307.89 467.03L302.16 466.92L296.48 466.57L290.87 466L285.32 465.21L279.85 464.2L274.45 462.99L269.14 461.56L263.91 459.94L258.77 458.11L253.73 456.1L248.79 453.89L243.95 451.5L239.22 448.93L234.6 446.18L230.1 443.27L225.72 440.19L221.46 436.94L217.34 433.54L213.35 429.98L209.5 426.28L205.8 422.43L202.24 418.44L198.84 414.32L195.6 410.07L192.51 405.69L189.6 401.18L186.85 396.57L184.28 391.83L181.89 386.99L179.68 382.05L177.67 377.01L175.84 371.87L174.22 366.64L172.79 361.33L171.58 355.93L170.57 350.46L169.78 344.92L169.21 339.3L168.87 333.63L168.75 327.89L168.87 322.16L169.21 316.48L169.78 310.87L170.57 305.32L171.58 299.85L172.79 294.45L174.22 289.14L175.84 283.91L177.67 278.77L179.68 273.73L181.89 268.79L184.28 263.95L186.85 259.22L189.6 254.6L192.51 250.1L195.6 245.72L198.84 241.46L202.24 237.34L205.8 233.35L209.5 229.5L213.35 225.8L217.34 222.24L221.46 218.84L225.72 215.6L230.1 212.51L234.6 209.6L239.22 206.85L243.95 204.28L248.79 201.89L253.73 199.68L258.77 197.67L263.91 195.84L269.14 194.22L274.45 192.79L279.85 191.58L285.32 190.57L290.87 189.78L296.48 189.21L302.16 188.87L307.89 188.75L313.63 188.87L319.3 189.21ZM300.85 242.32L297.39 242.67L293.96 243.16L290.59 243.78L287.26 244.53L283.98 245.41L280.75 246.41L277.58 247.54L274.47 248.78L271.42 250.15L268.44 251.62L265.52 253.21L262.67 254.9L259.89 256.7L257.19 258.6L254.56 260.6L252.02 262.7L249.56 264.9L247.18 267.18L244.9 269.56L242.7 272.02L240.6 274.56L238.6 277.19L236.7 279.89L234.9 282.67L233.21 285.52L231.62 288.44L230.15 291.42L228.78 294.47L227.54 297.58L226.41 300.75L225.41 303.98L224.53 307.26L223.78 310.59L223.16 313.96L222.67 317.39L222.32 320.85L222.11 324.35L222.04 327.89L222.11 331.43L222.32 334.93L222.67 338.4L223.16 341.82L223.78 345.19L224.53 348.52L225.41 351.8L226.41 355.03L227.54 358.2L228.78 361.31L230.15 364.36L231.62 367.34L233.21 370.26L234.9 373.11L236.7 375.89L238.6 378.59L240.6 381.22L242.7 383.76L244.9 386.22L247.18 388.6L249.56 390.88L252.02 393.08L254.56 395.18L257.19 397.18L259.89 399.08L262.67 400.88L265.52 402.57L268.44 404.16L271.42 405.64L274.47 407L277.58 408.24L280.75 409.37L283.98 410.37L287.26 411.25L290.59 412L293.96 412.62L297.39 413.11L300.85 413.46L304.35 413.67L307.89 413.74L311.43 413.67L314.93 413.46L318.4 413.11L321.82 412.62L325.19 412L328.52 411.25L331.8 410.37L335.03 409.37L338.2 408.24L341.31 407L344.36 405.64L347.34 404.16L350.26 402.57L353.11 400.88L355.89 399.08L358.59 397.18L361.22 395.18L363.76 393.08L366.22 390.88L368.6 388.6L370.88 386.22L373.08 383.76L375.18 381.22L377.18 378.59L379.08 375.89L380.88 373.11L382.57 370.26L384.16 367.34L385.64 364.36L387 361.31L388.24 358.2L389.37 355.03L390.37 351.8L391.25 348.52L392 345.19L392.62 341.82L393.11 338.4L393.46 334.93L393.67 331.43L393.74 327.89L393.67 324.35L393.46 320.85L393.11 317.39L392.62 313.96L392 310.59L391.25 307.26L390.37 303.98L389.37 300.75L388.24 297.58L387 294.47L385.64 291.42L384.16 288.44L382.57 285.52L380.88 282.67L379.08 279.89L377.18 277.19L375.18 274.56L373.08 272.02L370.88 269.56L368.6 267.18L366.22 264.9L363.76 262.7L361.22 260.6L358.59 258.6L355.89 256.7L353.11 254.9L350.26 253.21L347.34 251.62L344.36 250.15L341.31 248.78L338.2 247.54L335.03 246.41L331.8 245.41L328.52 244.53L325.19 243.78L321.82 243.16L318.4 242.67L314.93 242.32L311.43 242.11L307.89 242.04L304.35 242.11L300.85 242.32Z" id="bL3hU1v0y" fill="white" fill-opacity="1" filter="url(#shadow11903304)"></path></g><use xlink:href="#ax8aZjbNI" opacity="1" fill="#606060" fill-opacity="1"></use></g></g></g></svg>